<svg id="Слой_1" data-name="Слой 1" xmlns="http://www.w3.org/2000/svg" xmlns:xlink="http://www.w3.org/1999/xlink" viewBox="0 0 170 96.26"><defs><style>.cls-1{fill:url(#Безымянный_градиент_4);}.cls-2{fill:url(#Безымянный_градиент_5);}.cls-3{fill:url(#Безымянный_градиент_5-2);}.cls-4{fill:url(#Безымянный_градиент_5-3);}.cls-5{fill:url(#Безымянный_градиент_5-4);}.cls-6{fill:url(#Безымянный_градиент_5-5);}.cls-7{fill:url(#Безымянный_градиент_5-6);}.cls-8{fill:url(#Безымянный_градиент_5-7);}.cls-9{fill:url(#Безымянный_градиент_5-8);}</style><linearGradient id="Безымянный_градиент_4" x1="3.86" y1="48.77" x2="167.3" y2="48.77" gradientUnits="userSpaceOnUse"><stop offset="0" stop-color="#2ba6df"/><stop offset="1" stop-color="#1b95eb"/></linearGradient><linearGradient id="Безымянный_градиент_5" x1="147.4" y1="75.29" x2="362.87" y2="75.55" xlink:href="#Безымянный_градиент_4"/><linearGradient id="Безымянный_градиент_5-2" x1="147.4" y1="75.26" x2="362.87" y2="75.52" xlink:href="#Безымянный_градиент_4"/><linearGradient id="Безымянный_градиент_5-3" x1="147.4" y1="75.24" x2="362.87" y2="75.5" xlink:href="#Безымянный_градиент_4"/><linearGradient id="Безымянный_градиент_5-4" x1="147.4" y1="75.19" x2="362.87" y2="75.45" xlink:href="#Безымянный_градиент_4"/><linearGradient id="Безымянный_градиент_5-5" x1="147.4" y1="75.16" x2="362.87" y2="75.42" xlink:href="#Безымянный_градиент_4"/><linearGradient id="Безымянный_градиент_5-6" x1="147.4" y1="75.02" x2="362.87" y2="75.28" xlink:href="#Безымянный_градиент_4"/><linearGradient id="Безымянный_градиент_5-7" x1="310.03" y1="61.43" x2="323.9" y2="61.44" xlink:href="#Безымянный_градиент_4"/><linearGradient id="Безымянный_градиент_5-8" x1="147.4" y1="75.1" x2="362.87" y2="75.36" xlink:href="#Безымянный_градиент_4"/></defs><title>logo_kr</title><path class="cls-1" d="M166.93,52.24c-13.28,0-16.37-1-22.19-5.11C137.14,41.8,122.82,3.82,96.5,3.82S46.71,34,40.45,40.63s-15.22,14.53-17,15.06c-3.19.94-5.65-.52-5.65-5.41S21,33.85,21,30.26s-3.85-9.39-9-9.39S3.86,25.17,3.86,27s.78,4.63,2.54,4.63,3.13-2,5.74-2,3.66.13,5.22,2S13.77,46.7,13.77,52s4.11,7.5,6.91,8c3,.55,8.29-2.62,10.56-4.1a.36.36,0,0,1,.52.46C24.36,72,21.43,90.31,21,93.26a.36.36,0,0,0,.35.41l15,.06a.35.35,0,0,0,.35-.45,16.08,16.08,0,0,0-5.29-7.68.36.36,0,0,1,.23-.64c11-.29,13-5.46,16.3-10.87a.35.35,0,0,1,.44-.15c9,3.54,21.67,1.41,24.14,1a.36.36,0,0,1,.42.36c0,1.43-.06,6-.06,8.36s-2.4,7.92-3.16,9.62a.35.35,0,0,0,.33.5H85.77a.36.36,0,0,0,.36-.41c-.34-2.63-3.57-8.39-4.44-9.92a.34.34,0,0,1,.2-.51c8.18-2.71,19.27-13.79,20.58-15.13a.32.32,0,0,1,.32-.09c.85.19,4.31,1.37,7,8.18,3,7.76,6.66,6.86,13.73,6.85a.41.41,0,0,1,.28.11,8.76,8.76,0,0,1,1.35,10.4.36.36,0,0,0,.32.52h13a.38.38,0,0,0,.37-.37,15.34,15.34,0,0,0-9.8-14.56.37.37,0,0,1-.24-.36C129,74,134,70,138.08,67c3.6-2.59,4.63-11,4.84-13.24a.36.36,0,0,1,.53-.28c1.3.67,5.27,2.34,12.53,2.34,7.74,0,10.61-1.93,11.28-3.1A.36.36,0,0,0,166.93,52.24ZM138.7,54.37a32.36,32.36,0,0,1-8.59-1.09c-10.49-2.61-25.78-8.54-21.64-15.06,1.66-2.62,6.88-2.71,13.37,5.28,5.12,6.3,14.57,9.9,16.89,10.71A.08.08,0,0,1,138.7,54.37Z"/></svg>